<?xml version="1.0" encoding="utf-8"?>
<!-- Generator: Adobe Illustrator 19.0.0, SVG Export Plug-In . SVG Version: 6.00 Build 0)  -->
<svg version="1.1" id="Capa_1" xmlns="http://www.w3.org/2000/svg" xmlns:xlink="http://www.w3.org/1999/xlink" x="0px" y="0px"
	 viewBox="0 0 68.1 79.3" style="enable-background:new 0 0 68.1 79.3;" xml:space="preserve">
<style type="text/css">
	.st0{fill:#EBC45D;stroke:#26241E;stroke-width:2;stroke-linejoin:round;stroke-miterlimit:10;}
	.st1{fill:none;stroke:#26241E;stroke-width:2;stroke-linejoin:round;stroke-miterlimit:10;}
	.st2{fill:#FFFFFF;stroke:#26241E;stroke-width:2;stroke-linejoin:round;stroke-miterlimit:10;}
</style>
<g id="XMLID_2_">
	<path id="XMLID_8_" class="st0" d="M60.9,28.1h-8v5h5c0,0,0,2.6,0,4c0,16-4.9,19.3-9,24.9c10.8-3.6,15-7.9,15-29.9
		C63.9,30.8,63.9,28.1,60.9,28.1z"/>
	<path id="XMLID_7_" class="st0" d="M52.9,65.1c0,2.2,0,6-6,6h-28c-6,0-6-3.8-6-6v-44h40V65.1z"/>
	<line id="XMLID_6_" class="st1" x1="21.9" y1="31.1" x2="21.9" y2="60.1"/>
	<line id="XMLID_5_" class="st1" x1="32.9" y1="31.1" x2="32.9" y2="60.1"/>
	<line id="XMLID_4_" class="st1" x1="43.9" y1="31.1" x2="43.9" y2="60.1"/>
	<path id="XMLID_3_" class="st2" d="M50.2,14.1c-0.3,0-0.6,0-0.9,0.1c-1.1-1.9-3-3.1-5.2-3.1c-2.7,0-6.4-1.5-7.2,1
		c-0.8-0.8-0.5,2-1.7,2c0,0,0,0-0.1,0c-0.5-4.5-4-5-8.4-5c-3.8,0-7-0.3-8.1,3.3c-1-0.8-0.4,0.7-1.8,0.7c-3.4,0-6,0.9-6,4.5
		s0.7,3.5,4.1,3.5c0.2,0,0.5,0,0.9,0v6.5c0,1.4,1.1,2.5,2.5,2.5c1.4,0,2.5-1.1,2.5-2.5v-6.5c1.2,0,2.6,0,4,0v14c0,1.1,1.3,2,3,2
		c1.7,0,3-0.9,3-2v-14c2.4,0,4.7,0,7,0v5c0,1.7,1.3,3,3,3c1.7,0,3-1.3,3-3v-5c3.5,0,6,0,6.3,0c2.6,0,3.7,0.8,3.7-2
		S52.8,14.1,50.2,14.1z"/>
</g>
</svg>
