<?xml version="1.0" encoding="utf-8"?>
<!-- Generator: Adobe Illustrator 19.0.0, SVG Export Plug-In . SVG Version: 6.00 Build 0)  -->
<svg version="1.1" id="Capa_1" xmlns="http://www.w3.org/2000/svg" xmlns:xlink="http://www.w3.org/1999/xlink" x="0px" y="0px"
	 viewBox="0 0 69.8 56.9" style="enable-background:new 0 0 69.8 56.9;" xml:space="preserve">
<style type="text/css">
	.st0{fill:#FEC055;stroke:#231F20;stroke-width:2;stroke-linejoin:round;stroke-miterlimit:10;}
	.st1{fill:#B3C755;stroke:#231F20;stroke-width:2;stroke-linejoin:round;stroke-miterlimit:10;}
	.st2{fill:#EB5453;stroke:#231F20;stroke-width:2;stroke-linejoin:round;stroke-miterlimit:10;}
</style>
<path class="st0" d="M64.4,28c0,12.7-3.1,23-29,23s-29-10.3-29-23S8,5,35.4,5S64.4,15.3,64.4,28z"/>
<path class="st1" d="M65.4,28c0,1.4-1.8,2.8-5,3.9c0.1,6.6-4.9,4.6-9.3,5.1c-4.2,0.5-7.2,5.3-15.7-2c-5.5,0-8.9,3.9-15,0.9
	c-3.2,2.7-12.4,4-13-3.8c-0.7-0.3-2-3-2-4.1s2.8-12.2,5-3.9c2.6-0.9-0.2-6.9,8-4.2c4.2-7.1,11.5,1.1,17,1.1c6.6-4.1,9.9-0.5,14.1,0
	c9.2-5.6,14.7-2.8,13.9,3C66.6,25.1,65.4,26.6,65.4,28z"/>
<path class="st2" d="M66.4,29.3c0,1.5-1.1,2.7-2.4,2.7H6.8c-1.3,0-2.4-1.2-2.4-2.7v-2.7c0-1.5,1.1-2.7,2.4-2.7h57.1
	c1.3,0,2.4,1.2,2.4,2.7L66.4,29.3L66.4,29.3z"/>
</svg>
