<?xml version="1.0" encoding="utf-8"?>
<!-- Generator: Adobe Illustrator 19.0.0, SVG Export Plug-In . SVG Version: 6.00 Build 0)  -->
<svg version="1.1" id="Capa_1" xmlns="http://www.w3.org/2000/svg" xmlns:xlink="http://www.w3.org/1999/xlink" x="0px" y="0px"
	 viewBox="-454 249 51 60" style="enable-background:new -454 249 51 60;" xml:space="preserve">
<style type="text/css">
	.st0{fill:#FECD86;stroke:#231F20;stroke-width:2;stroke-linejoin:round;stroke-miterlimit:10;}
	.st1{fill:#B3C755;stroke:#231F20;stroke-width:2;stroke-linejoin:round;stroke-miterlimit:10;}
	.st2{fill:none;stroke:#231F20;stroke-width:2;stroke-linejoin:round;stroke-miterlimit:10;}
	.st3{fill:#E55540;stroke:#231F20;stroke-width:2;stroke-linejoin:round;stroke-miterlimit:10;}
</style>
<g>
	<path class="st0" d="M-426.5,257.6c0-0.9-0.7-1.6-1.6-1.6h-14.5c-0.9,0-1.6,0.7-1.6,1.6c0,0,0,7.7,0,8.1c0,4.5,2.3,8.3,6.5,9.4
		v15.6c0,0.9,0.9,1.6,1.9,1.6h1c1,0,1.9-0.7,1.9-1.6V275c4.2-1,6.5-4.8,6.5-9.4C-426.5,265.4-426.5,257.6-426.5,257.6z"/>
	<path class="st1" d="M-431.4,304.4c0,0.9-0.6,1.6-1.4,1.6h-5.4c-0.7,0-1.4-0.7-1.4-1.6v-16.1c0-0.9,0.6-1.6,1.4-1.6h5.4
		c0.7,0,1.4,0.7,1.4,1.6V304.4z"/>
	<line class="st2" x1="-440.3" y1="256" x2="-440.3" y2="267.3"/>
	<line class="st2" x1="-435.4" y1="256" x2="-435.4" y2="267.3"/>
	<line class="st2" x1="-430.5" y1="256" x2="-430.5" y2="267.3"/>
	<path class="st0" d="M-416,256c0,0-0.6,0-0.8,0.1c-2.9,0.6-5.6,7.2-5.6,15.2c0,4-0.2,7.7,0.7,10.5h2.5v4c0,0.9,0.7,1.6,1.6,1.6h1.6
		c0.9,0,1.6-0.7,1.6-1.6v-28.2C-414.4,256.7-415.1,256-416,256z"/>
	<path class="st3" d="M-412.8,304.4c0,0.9-0.6,1.6-1.4,1.6h-5.4c-0.7,0-1.4-0.7-1.4-1.6v-16.1c0-0.9,0.6-1.6,1.4-1.6h5.4
		c0.7,0,1.4,0.7,1.4,1.6V304.4z"/>
</g>
</svg>
