<?xml version="1.0" encoding="utf-8"?>
<!-- Generator: Adobe Illustrator 19.0.0, SVG Export Plug-In . SVG Version: 6.00 Build 0)  -->
<svg version="1.1" id="Capa_1" xmlns="http://www.w3.org/2000/svg" xmlns:xlink="http://www.w3.org/1999/xlink" x="0px" y="0px"
	 viewBox="0 0 76 61.4" style="enable-background:new 0 0 76 61.4;" xml:space="preserve">
<style type="text/css">
	.st0{fill:#EE6E69;stroke:#231F20;stroke-width:2;stroke-miterlimit:10;}
	.st1{fill:none;stroke:#231F20;stroke-width:2;stroke-miterlimit:10;}
	.st2{fill:#EB5453;stroke:#231F20;stroke-width:2;stroke-miterlimit:10;}
	.st3{fill:#FEC055;stroke:#231F20;stroke-width:2;stroke-miterlimit:10;}
</style>
<g id="XMLID_4_">
	<path id="XMLID_16_" class="st0" d="M59,40.9c0,1.1-0.9,2-2,2H31c-1.1,0-2-0.9-2-2l-4-23c0-1.1,0.9-2,2-2h42c1.1,0,2,0.9,2,2
		L59,40.9z"/>
	<line id="XMLID_15_" class="st1" x1="27" y1="17.9" x2="68" y2="17.9"/>
	<line id="XMLID_14_" class="st1" x1="27" y1="25.9" x2="67" y2="25.9"/>
	<line id="XMLID_13_" class="st1" x1="28" y1="33.9" x2="62" y2="33.9"/>
	<line id="XMLID_12_" class="st1" x1="35" y1="16.9" x2="35" y2="42.9"/>
	<line id="XMLID_11_" class="st1" x1="49" y1="16.9" x2="49" y2="42.9"/>
	<line id="XMLID_10_" class="st1" x1="62" y1="16.9" x2="62" y2="32.9"/>
	<polyline id="XMLID_9_" class="st1" points="29,41.9 26,51.9 59,51.9 	"/>
	<circle id="XMLID_8_" class="st2" cx="33.5" cy="53.4" r="3.5"/>
	<circle id="XMLID_7_" class="st2" cx="51.5" cy="53.4" r="3.5"/>
	<path id="XMLID_6_" class="st0" d="M18,10.9c0,1.1-0.9,2-2,2h-5c-1.1,0-2-0.9-2-2v-1c0-1.1,0.9-1,2-1h5c1.1,0,2-0.1,2,1V10.9z"/>
	<polyline id="XMLID_5_" class="st1" points="18,10.9 23,10.9 25,16.9 	"/>
</g>
<path id="XMLID_3_" class="st3" d="M48,39.9c0,1.1,11,8,11,8c1.1,0,2-0.9,2-2v-2h8c1.1,0,2-0.8,2-1.8v-4.4c0-1-0.9-1.8-2-1.8h-8v-2
	c0-1.1-0.9-2-2-2C59,31.9,48,38.8,48,39.9z"/>
</svg>
