<?xml version="1.0" encoding="utf-8"?>
<!-- Generator: Adobe Illustrator 19.0.0, SVG Export Plug-In . SVG Version: 6.00 Build 0)  -->
<svg version="1.1" id="Capa_1" xmlns="http://www.w3.org/2000/svg" xmlns:xlink="http://www.w3.org/1999/xlink" x="0px" y="0px"
	 viewBox="0 0 70 65.7" style="enable-background:new 0 0 70 65.7;" xml:space="preserve">
<style type="text/css">
	.st0{fill:#F2EADB;}
	.st1{fill:#FFFFFF;}
	.st2{fill:#E6D6B7;}
	.st3{fill:#FF8080;}
	.st4{fill:none;stroke:#675252;stroke-width:2;stroke-linecap:round;stroke-linejoin:round;stroke-miterlimit:10;}
</style>
<circle id="XMLID_21_" class="st0" cx="36" cy="45.7" r="19"/>
<path id="XMLID_20_" class="st1" d="M36,60.7c-8.3,0-15-6.7-15-15s6.7-15,15-15s15,6.7,15,15S44.3,60.7,36,60.7z"/>
<path id="XMLID_19_" class="st2" d="M49.6,56.3c-3.6,3.4-8.3,5.4-13.6,5.4s-10-2-13.6-5.4c-2.4-2.2-4.2-5.1-5.3-8.2
	c1.2,9.3,9.2,16.6,18.8,16.6s17.6-7.2,18.8-16.6C53.8,51.3,51.9,54.1,49.6,56.3z"/>
<g id="XMLID_11_">
	<path id="XMLID_18_" class="st0" d="M51,17.7c0,0.5,0,1.1-0.1,1.6c-0.4,3.4-1.9,6.5-4.3,9c-2.8,2.8-6.6,4.4-10.6,4.4
		s-7.8-1.6-10.6-4.4c-2.5-2.5-3.9-5.6-4.3-9C21,18.8,21,18.2,21,17.7c0-4,1.6-7.8,4.4-10.6C28.2,4.3,32,2.7,36,2.7s7.8,1.6,10.6,4.4
		C49.4,9.9,51,13.7,51,17.7z"/>
	<path id="XMLID_17_" class="st2" d="M50.9,19.3c-0.4,3.4-1.9,6.5-4.3,9c-2.8,2.8-6.6,4.4-10.6,4.4s-7.8-1.6-10.6-4.4
		c-2.5-2.5-3.9-5.6-4.3-9c0.9,2.5,2.4,4.6,4.3,6.3c2.8,2.5,6.5,4,10.6,4s7.8-1.5,10.6-4C48.5,23.9,50,21.8,50.9,19.3z"/>
	<path id="XMLID_16_" class="st1" d="M36,29.7c-3.3,0-6.3-1.3-8.5-3.5S24,21,24,17.7s1.3-6.3,3.5-8.5s5.2-3.5,8.5-3.5
		s6.3,1.3,8.5,3.5s3.5,5.2,3.5,8.5s-1.3,6.3-3.5,8.5S39.3,29.7,36,29.7z"/>
	<path id="XMLID_15_" class="st2" d="M40,43.7c0,0.6-0.4,1.1-1.2,1.4c-0.7,0.4-1.7,0.6-2.8,0.6s-2.1-0.2-2.8-0.6
		c-0.7-0.4-1.2-0.9-1.2-1.4c0-0.6,0.4-1.1,1.2-1.4c0.7-0.4,1.7-0.6,2.8-0.6s2.1,0.2,2.8,0.6C39.6,42.6,40,43.1,40,43.7z"/>
	<path id="XMLID_14_" class="st2" d="M40,51.7c0,0.6-0.4,1.1-1.2,1.4c-0.7,0.4-1.7,0.6-2.8,0.6s-2.1-0.2-2.8-0.6
		c-0.7-0.4-1.2-0.9-1.2-1.4c0-0.6,0.4-1.1,1.2-1.4c0.7-0.4,1.7-0.6,2.8-0.6s2.1,0.2,2.8,0.6C39.6,50.6,40,51.1,40,51.7z"/>
	<path id="XMLID_13_" class="st2" d="M32,15.7c0,0.6-0.2,1.1-0.6,1.4c-0.4,0.4-0.9,0.6-1.4,0.6s-1.1-0.2-1.4-0.6
		c-0.4-0.4-0.6-0.9-0.6-1.4c0-0.6,0.2-1.1,0.6-1.4c0.4-0.4,0.9-0.6,1.4-0.6s1.1,0.2,1.4,0.6C31.8,14.6,32,15.1,32,15.7z"/>
	<path id="XMLID_12_" class="st2" d="M44,15.7c0,0.6-0.2,1.1-0.6,1.4c-0.4,0.4-0.9,0.6-1.4,0.6s-1.1-0.2-1.4-0.6
		c-0.4-0.4-0.6-0.9-0.6-1.4c0-0.6,0.2-1.1,0.6-1.4c0.4-0.4,0.9-0.6,1.4-0.6s1.1,0.2,1.4,0.6C43.8,14.6,44,15.1,44,15.7z"/>
</g>
<path id="XMLID_10_" class="st3" d="M40,21.7c0,2.2-1.8,11-4,11s-4-8.8-4-11c0-1.1,0.4-2.1,1.2-2.8c0.7-0.7,1.7-1.2,2.8-1.2
	s2.1,0.4,2.8,1.2C39.6,19.6,40,20.6,40,21.7z"/>
<g id="XMLID_5_">
	<polyline id="XMLID_9_" class="st4" points="60,25.7 56,29.7 52,33.7 	"/>
	<polyline id="XMLID_8_" class="st4" points="60,17.7 60,21.7 60,25.7 64,25.7 68,25.7 	"/>
	<polyline id="XMLID_7_" class="st4" points="12,25.7 16,29.7 20,33.7 	"/>
	<polyline id="XMLID_6_" class="st4" points="12,17.7 12,21.7 12,25.7 8,25.7 4,25.7 	"/>
</g>
<path id="XMLID_4_" class="st4" d="M45.5,29.3c-2.7,2.2-6,3.4-9.5,3.4s-6.9-1.2-9.5-3.4c-5.7,3.3-9.5,9.4-9.5,16.4
	c0,10.5,8.5,19,19,19s19-8.5,19-19C55,38.7,51.2,32.6,45.5,29.3z"/>
<path id="XMLID_3_" class="st4" d="M51,17.7c0,0.5,0,1.1-0.1,1.6c-0.4,3.4-1.9,6.5-4.3,9c-2.8,2.8-6.6,4.4-10.6,4.4
	s-7.8-1.6-10.6-4.4c-2.5-2.5-3.9-5.6-4.3-9C21,18.8,21,18.2,21,17.7c0-4,1.6-7.8,4.4-10.6C28.2,4.3,32,2.7,36,2.7s7.8,1.6,10.6,4.4
	C49.4,9.9,51,13.7,51,17.7z"/>
<path id="XMLID_2_" class="st4" d="M40,21.7c0,2.2-1.8,11-4,11s-4-8.8-4-11c0-1.1,0.4-2.1,1.2-2.8c0.7-0.7,1.7-1.2,2.8-1.2
	s2.1,0.4,2.8,1.2C39.6,19.6,40,20.6,40,21.7z"/>
</svg>
