<?xml version="1.0" encoding="utf-8"?>
<!-- Generator: Adobe Illustrator 19.0.0, SVG Export Plug-In . SVG Version: 6.00 Build 0)  -->
<svg version="1.1" id="Capa_1" xmlns="http://www.w3.org/2000/svg" xmlns:xlink="http://www.w3.org/1999/xlink" x="0px" y="0px"
	 viewBox="0 0 25.6 23.4" style="enable-background:new 0 0 25.6 23.4;" xml:space="preserve">
<style type="text/css">
	.st0{fill:#E55540;stroke:#231F20;stroke-width:2;stroke-linejoin:round;stroke-miterlimit:10;}
</style>
<path id="XMLID_119_" class="st0" d="M23.5,17.1c0.3,0.3,0.3,0.8,0,1.1L19.7,22c-0.3,0.3-0.8,0.3-1.1,0L2.8,6.2
	c-0.3-0.3-0.3-0.8,0-1.1l3.8-3.8c0.3-0.3,0.8-0.3,1.1,0L23.5,17.1z"/>
<path id="XMLID_54_" class="st0" d="M7.7,22c-0.3,0.3-0.8,0.3-1.1,0l-3.8-3.8c-0.3-0.3-0.3-0.8,0-1.1L18.6,1.4
	c0.3-0.3,0.8-0.3,1.1,0l3.8,3.8c0.3,0.3,0.3,0.8,0,1.1L7.7,22z"/>
</svg>
