<?xml version="1.0" encoding="utf-8"?>
<!-- Generator: Adobe Illustrator 19.0.0, SVG Export Plug-In . SVG Version: 6.00 Build 0)  -->
<svg version="1.1" id="Capa_1" xmlns="http://www.w3.org/2000/svg" xmlns:xlink="http://www.w3.org/1999/xlink" x="0px" y="0px"
	 viewBox="0 0 46.5 48" style="enable-background:new 0 0 46.5 48;" xml:space="preserve">
<style type="text/css">
	.st0{fill:#EFE6CD;stroke:#26241E;stroke-width:2;stroke-linejoin:round;stroke-miterlimit:10;}
	.st1{fill:none;stroke:#26241E;stroke-width:2;stroke-linejoin:round;stroke-miterlimit:10;}
	.st2{fill:#E1BC16;stroke:#26241E;stroke-width:2;stroke-linejoin:round;stroke-miterlimit:10;}
</style>
<g id="XMLID_108_">
	<path id="XMLID_106_" class="st0" d="M31.1,8.7c0-4-3.5-7.2-7.9-7.2s-7.9,3.2-7.9,7.2c0,0.2,0,15.6,0,15.8c0,4,3.5,7.2,7.9,7.2
		s7.9-3.2,7.9-7.2C31.1,24.3,31.1,8.8,31.1,8.7z"/>
	<path id="XMLID_105_" class="st1" d="M11.8,17.4c0,0.2,0,7.4,0,7.6c0,5.6,5.1,10.2,11.5,10.2S34.8,30.6,34.8,25c0-0.2,0-7.4,0-7.6"
		/>
	<rect id="XMLID_104_" x="15.3" y="13.7" class="st2" width="15.8" height="5"/>
	<path id="XMLID_103_" class="st2" d="M34,46.7H12.5c0-3.6,4.8-6.5,10.8-6.5S34,43.1,34,46.7z"/>
	<line id="XMLID_102_" class="st1" x1="23.3" y1="35.2" x2="23.3" y2="40.5"/>
	<rect id="XMLID_101_" x="11.8" y="15.1" class="st1" width="1.4" height="4.3"/>
	<rect id="XMLID_100_" x="33.3" y="15.1" class="st1" width="1.4" height="4.3"/>
	<line id="XMLID_99_" class="st1" x1="15.3" y1="8.7" x2="20.4" y2="8.7"/>
	<line id="XMLID_98_" class="st1" x1="16.1" y1="5.8" x2="20.4" y2="5.8"/>
	<line id="XMLID_97_" class="st1" x1="26.1" y1="5.8" x2="30.4" y2="5.8"/>
	<line id="XMLID_96_" class="st1" x1="26.1" y1="8.7" x2="31.1" y2="8.7"/>
	<line id="XMLID_95_" class="st1" x1="31.1" y1="23" x2="26.1" y2="23"/>
	<line id="XMLID_5_" class="st1" x1="30.4" y1="25.9" x2="26.1" y2="25.9"/>
	<line id="XMLID_3_" class="st1" x1="20.4" y1="25.9" x2="16.1" y2="25.9"/>
	<line id="XMLID_2_" class="st1" x1="20.4" y1="23" x2="15.3" y2="23"/>
</g>
</svg>
