<?xml version="1.0" encoding="utf-8"?>
<!-- Generator: Adobe Illustrator 19.0.0, SVG Export Plug-In . SVG Version: 6.00 Build 0)  -->
<svg version="1.1" id="Capa_1" xmlns="http://www.w3.org/2000/svg" xmlns:xlink="http://www.w3.org/1999/xlink" x="0px" y="0px"
	 viewBox="0 0 46.5 48" style="enable-background:new 0 0 46.5 48;" xml:space="preserve">
<style type="text/css">
	.st0{fill:#BDC759;stroke:#26241E;stroke-width:2;stroke-linejoin:round;stroke-miterlimit:10;}
</style>
<g id="XMLID_5_">
	<path id="XMLID_3_" class="st0" d="M2.7,25.8c-0.5-0.5-0.5-1.4,0-1.9l6.7-6.7c0.5-0.5,1.4-0.5,1.9,0L26.1,32c0.5,0.5,0.5,1.4,0,1.9
		l-6.7,6.7c-0.5,0.5-1.4,0.5-1.9,0L2.7,25.8z"/>
	<path id="XMLID_2_" class="st0" d="M19.4,40.6c-0.5,0.5-1.4,0.5-1.9,0l-6.7-6.7c-0.5-0.5-0.5-1.4,0-1.9L35.2,7.6
		c0.5-0.5,1.4-0.5,1.9,0l6.7,6.7c0.5,0.5,0.5,1.4,0,1.9L19.4,40.6z"/>
</g>
</svg>
