<?xml version="1.0" encoding="utf-8"?>
<!-- Generator: Adobe Illustrator 19.0.0, SVG Export Plug-In . SVG Version: 6.00 Build 0)  -->
<svg version="1.1" id="Capa_1" xmlns="http://www.w3.org/2000/svg" xmlns:xlink="http://www.w3.org/1999/xlink" x="0px" y="0px"
	 viewBox="0 0 100 100" style="enable-background:new 0 0 100 100;" xml:space="preserve">
<style type="text/css">
	.st0{fill:#E2E0AA;stroke:#26241E;stroke-width:2;stroke-linejoin:round;stroke-miterlimit:10;}
	.st1{fill:#8AAFBD;stroke:#26241E;stroke-width:2;stroke-linejoin:round;stroke-miterlimit:10;}
	.st2{fill:#F6E9C6;stroke:#26241E;stroke-width:2;stroke-linejoin:round;stroke-miterlimit:10;}
</style>
<g>
	<path class="st0" d="M76.8,73.7c0,1.4-1.3,2.5-3,2.5H27.7c-1.6,0-3-1.1-3-2.5V39c0-1.4,1.3-2.5,3-2.5h46.1c1.6,0,3,1.1,3,2.5V73.7z
		"/>
	<path class="st1" d="M81.7,45.1c0,1.7-1.1,3.1-2.5,3.1L50.7,35.7L22.2,48.2c-1.4,0-2.5-1.4-2.5-3.1v-4.4c0-1.7,1.1-3.1,2.5-3.1
		l28.5-14.4l28.5,14.4c1.4,0,2.5,1.4,2.5,3.1V45.1z"/>
	<path class="st2" d="M58.7,76.3H44.8V59.6c0-1.4,1.2-2.4,2.6-2.4h8.7c1.4,0,2.6,1,2.6,2.4V76.3z"/>
</g>
</svg>
